<svg xmlns="http://www.w3.org/2000/svg" width="1370.561" height="953.28" viewBox="0 0 1370.561 953.28">
  <defs>
    <style>
      .cls-1 {
        fill: #fff;
      }

      .cls-1, .cls-2, .cls-4 {
        fill-rule: evenodd;
      }

      .cls-2, .cls-3 {
        fill: #f58634;
      }

      .cls-4 {
        fill: #feffff;
      }
    </style>
  </defs>
  <path id="Media" class="cls-1" d="M1183.36,1448.26V1329.84l44.26,118.42h18.26l44.47-116.43v116.43h19.52V1309.15h-27.24l-36.64,96.79q-5.535,14.7-8.14,22.3-2.3-6.84-7.31-20.59l-36.22-98.5h-30.48v139.11h19.52Zm210.39-16.7q-7.3,4.935-17.64,4.93-13.89,0-23.18-8.82-9.285-8.835-10.33-25.43h82.67c0.07-2.03.1-3.55,0.1-4.56q0-24.945-14.09-38.71t-36.32-13.76q-22.965,0-37.37,14.04t-14.4,39.48q0,24.57,14.24,38.19t38.57,13.62q19.32,0,31.73-8.54t17.02-24.01l-19.42-2.18Q1401.055,1426.625,1393.75,1431.56Zm-40.35-64.43q8.82-7.875,21.77-7.88,14.3,0,23.27,9.87,5.85,6.36,7.1,19.07h-61.9Q1344.585,1375.005,1353.4,1367.13Zm173.6,81.13V1309.15h-18.69v49.91a36.5,36.5,0,0,0-12.73-10.01,40.024,40.024,0,0,0-17.85-3.84,47.616,47.616,0,0,0-24.74,6.55,40.593,40.593,0,0,0-16.59,18.83,65.924,65.924,0,0,0-5.54,27.38q0,15.465,6.11,27.37a45,45,0,0,0,17.22,18.55,46.637,46.637,0,0,0,24.37,6.65q20.46,0,31-15v12.72H1527Zm-68.42-79.61a27.031,27.031,0,0,1,20.92-9.3,28,28,0,0,1,21.61,9.68q8.775,9.675,8.77,30.36,0,18.795-8.61,27.95a27.671,27.671,0,0,1-20.93,9.15q-12.21,0-21.19-9.58t-8.98-28.94Q1450.17,1377.945,1458.58,1368.65Zm106.16-39.86v-19.64h-18.79v19.64h18.79Zm0,119.47V1347.49h-18.79v100.77h18.79Zm94,0h19.63a35.73,35.73,0,0,1-4.75-12.1q-1.2-6.315-1.2-30.13v-22.77q0-11.385-.94-15.75a25.978,25.978,0,0,0-5.85-11.63q-4.17-4.59-13.05-7.64-8.865-3.03-23.06-3.03a80.589,80.589,0,0,0-25.16,3.56q-10.86,3.555-16.6,10.15t-8.24,17.32l18.37,2.27q3.03-10.71,9.34-14.94t19.57-4.22q14.19,0,21.4,5.79,5.325,4.26,5.32,14.7c0,0.64-.03,2.12-0.1,4.46q-10.755,3.42-33.51,5.89a145.381,145.381,0,0,0-16.7,2.56,47.641,47.641,0,0,0-13.51,5.6,28.874,28.874,0,0,0-9.71,9.82,26.691,26.691,0,0,0,6.1,34.25q9.81,8.115,28.08,8.12a63.121,63.121,0,0,0,20.72-3.33,71.06,71.06,0,0,0,20.09-11.38,33.756,33.756,0,0,0,3.76,12.43h0Zm-5.32-44.32q0,11.3-3.03,17.08a27.841,27.841,0,0,1-12.42,11.82,41.846,41.846,0,0,1-19.31,4.32q-10.965,0-16.65-4.56a14.036,14.036,0,0,1-5.69-11.39,13.644,13.644,0,0,1,2.61-8.11,16.156,16.156,0,0,1,7.41-5.55q4.8-1.89,16.39-3.42,20.46-2.655,30.69-6.45v6.26Z" transform="translate(-313.219 -497.25)"/>
  <path class="cls-2" d="M1194.07,735.738h44.52V694.4h79.5v41.34h41.34v50.88s21.4-54.06,104.94-54.06,98.58,70.73,98.58,85.86v31.8H1426.21s7.71,25.44,41.34,25.44c22.5,0,38.16-15.9,38.16-15.9l41.34,41.34s-23.49,28.62-85.86,28.62-88.31-34.758-101.76-54.06l12.72,44.52s-80.26,28.587-111.3-12.72c-23.35-31.075-19.08-49.247-19.08-76.32v-34.98h-47.7v-60.42Zm159,60.42h-31.8v54.06c0,18.377,19.42,21.768,31.8,15.9C1353.07,866.118,1342.5,829.535,1353.07,796.158Zm73.14,15.9h60.42s-2.25-25.44-28.62-25.44S1427.32,804.827,1426.21,812.058ZM1181.35,1222.28v-190.8c54.63,0,73.14,66.78,73.14,66.78,14.47-57.05,53.07-69.96,95.4-69.96s54.06,22.26,54.06,22.26V1028.3h73.14v63.6s23.38-63.6,101.76-63.6,104.94,55.72,104.94,79.5v38.16H1550.23s16.51,22.26,41.34,22.26,38.16-15.9,38.16-15.9l41.34,44.52c-18.88,18.88-47.65,28.62-89.04,28.62-79.4,0-104.94-63.6-104.94-63.6v31.8c0,49.27-33.64,98.58-111.3,98.58s-101.76-25.44-101.76-25.44l28.62-50.88s20.63,19.08,63.6,19.08,41.34-41.34,41.34-41.34-9.61,15.9-50.88,15.9c-73.22,0-92.22-63.6-92.22-63.6v76.32h-73.14Zm186.03-136.74a33.39,33.39,0,1,1-33.39,33.39A33.391,33.391,0,0,1,1367.38,1085.54Zm182.85,22.26h63.6s-5.76-25.44-28.62-25.44S1555.08,1094.05,1550.23,1107.8Z" transform="translate(-313.219 -497.25)"/>
  <circle class="cls-3" cx="475.405" cy="475.405" r="475.405"/>
  <path class="cls-4" d="M624.85,684.858l79.5,241.68h89.04l41.34-127.2,38.16,127.2h89.04l57.24-171.72,69.96,174.9s-19.16,14.885-47.7-3.18l-25.44,54.06s19.84,19.08,66.78,19.08,66.69-32.026,82.68-69.96,54.06-133.56,54.06-133.56h15.9l-28.62-60.42h-38.16L1127.29,837.5l-38.16-101.76h-66.78l15.9-50.88H961.93l-44.52,133.56-41.34-136.74h-79.5l-41.34,133.56-41.34-130.38H624.85Zm15.9,292.56V1222.28h85.86V977.418H640.75Zm95.4,50.882v193.98h76.32V1123.7c0-16.08,5.665-31.8,25.44-31.8s22.26,20.93,22.26,28.62v101.76h79.5V1120.52c0-19.02,9.926-28.62,25.44-28.62s19.08,14.81,19.08,28.62v101.76h76.32v-31.8s21.93,34.98,69.96,34.98,50.88-25.44,50.88-25.44v22.26h15.9s34.92-52.97,54.06-127.2c0,0-17.32-62.02-76.32-66.78-61.97-5.01-85.85,8.58-108.12,22.26l25.44,50.88s65.5-29.07,85.86,6.36h-34.98c-29.06,0-62.87,2.27-82.68,34.98v-41.34c0-25.52-15.85-73.14-66.78-73.14s-73.14,28.62-73.14,28.62-10.41-31.8-57.24-31.8c-30.7,0-54.06,22.26-54.06,22.26V1028.3H736.15Zm438.84,117.66h-25.44c-19.29,0-20.77,28.62,0,28.62S1174.99,1159.87,1174.99,1145.96ZM1241.77,821.6s17.83,38.117,19.08,85.86C1260.85,907.458,1236.76,894.472,1241.77,821.6Z" transform="translate(-313.219 -497.25)"/>
</svg>
